<?xml version="1.0" encoding="UTF-8"?>
<svg id="ItemPulse_Logo" xmlns="http://www.w3.org/2000/svg" viewBox="0 0 212.09 200.43">
  <g transform="translate(-541.85 -287.62)">
    <path d="m542.34,359.41c27.41,1.62,35.74-13.49,45.95-39.47,17.36-9.21,9.54,36.14,14.4,47.88,2.28,6.45,8.95-20.83,23.4-13.44,8.75-26.94,19.38-12.6,25.4,6.89,14-24.58,50.49-12.97,75.79-15.77-4.31,11.06-41.58,1.9-56.4,5.8-8.96,2.2-10.3,19.79-20.24,21.24-9.88.53-9.92-33.29-16.71-15.93-21.41-1.21-19.43,23.42-34.04,32.63-10.89-11.09-4.72-37.97-10.07-54.25-7.89,26.25-25.46,33.94-47.47,24.43Z" style="fill:#14a7c6;"/>
    <path d="m541.85,359.3c2.71-.3,5.97-.24,8.75-.45,3.39-.3,6.82-.88,10-2.12,15.68-5.76,21.36-23.22,27.48-37.18,9.52-5.23,11.71,6.59,12.36,13.52,1.25,10.9.08,22.07,2.26,32.79.17.7.57,1.91.88,2.33,1.75-1.31,2.8-3.8,4.16-5.62,4-6.33,10.63-13.17,18.68-8.84,0,0-1.04.43-1.04.43,9.11-28.5,21.28-12.38,27.11,6.81,0,0-1.92-.21-1.92-.21,13.2-22.95,44.53-15.85,66.56-16.34,2.5-.07,5.04,0,7.49-.35.82-.42,1.23-4.65,1.98-4.64l9.72.04-3.34,8.26c-.55,1.34-1.32,2.57-2.28,3.64-9.82,10.89-41.89,2.85-56.14,5.08-.93.16-2.19.28-3,.72-1.93,1.26-3.47,4.25-4.88,6.59-2.14,3.65-4,7.3-7.49,10.44-7.31,6.3-15.12,4.34-19.15-4.07-2.56-5-3.31-9.81-5.45-14.58,0-.03.03.09.47.44,1.09.8,2.68.97,3.91.4.31-.11.74-.44.89-.58.14-.16.06-.08.01-.01-.15.2-.39.63-.61,1.09-.44.99-1.68,3.84-2.1,4.91,0,0-3.51-.21-3.51-.21-7.42-.69-11.76,3.23-15.41,9.83-4.16,7.33-8.28,16.64-16.16,21.28,0,0-2.88,1.75-2.88,1.75l-2.22-2.35c-9.91-10.95-7.04-29.55-7.95-43.12-.21-4.54-.58-9.04-1.77-13.15,0,0,5.15-.07,5.15-.07-5.28,16.09-16.44,30.48-35.07,28.63-3.24-.36-6.65-1.13-9.71-2.27-2.06-.57-3.98-1.77-5.77-2.83h0Zm.97.23c1.33.37,2.59.35,3.83.83,0,0,.47.12.47.12,0,0,.93.23.93.23,21.44,5.77,33.85-6.71,39.17-26.5,0,0,2.29-8.2,2.29-8.2,0,0,2.85,8.14,2.85,8.14,4.6,13.58,2.46,28.17,5.43,41.82.92,4.2,2.54,8,5,10.41,0,0-5.1-.6-5.1-.6,6.3-4.27,8.84-11.9,12.57-18.79,4.83-9.72,12.6-16.04,23.93-15.37,0,0-4.93,3.16-4.93,3.16.89-2.23,1.68-4.31,3.51-6.2,2.06-2.25,5.96-2.7,8.39-.71,3.44,2.91,4.01,6.88,5.51,10.65,1.19,3.18,2.16,6.5,4.11,8.67.16.15.22.15.11.08-.1-.07-.39-.13-.56-.12,0,0-.49.05-.49.05.81-.19,1.35-.52,2.02-1.14,1.97-1.93,3.5-5.02,4.99-7.76,2.64-5.03,6.36-11.12,12.77-12.6.77-.2,2.49-.54,3.28-.66,11.54-1.45,23.03.17,34.11.16,4.5-.04,9.78.05,13.8-1.57.17-.11.45-.19.51-.28.06-.04.12-.08.18-.11.07-.03.04-.06.07-.08.14-.08-.07-.02-.02.11l6.37,8.3c-.93.16-2.21-3.91-3.08-4.19-2.57,0-5.16.2-7.74.13-20.89.25-52.12-7.28-64.73,14.27,0,0-1.22,2.1-1.22,2.1-1.87-6.25-3.95-12.59-7.49-18.09-8.18-12.77-14.1.27-16.91,8.81,0,0-.28.82-.28.82l-.76-.39c-9.42-4.95-15.49,6.31-20.04,12.84-5.04,6.74-5.22-10.29-5.43-12.77-.29-7.35-.18-14.69-.86-21.95-.59-6.1-2.21-17.76-10.92-12.82,0,0,.21-.23.21-.23-2.04,5.15-4.14,10.3-6.6,15.28-4.51,9.28-11.07,18.61-21.2,22.17-3.25,1.28-6.77,1.91-10.23,2.23,0,0-2.09.13-2.09.13-2.07.23-3.64-.11-5.76-.4h0Z" style="fill:#14a7c6;"/>
    <path d="m572.19,343.14c4.26-20.55,22.64-36,44.66-35.96,21.9.04,40.19,15.49,44.43,35.96h30.71c-.36-2.83-.9-5.67-1.63-8.52-5.23-20.3-16.84-35.97-34.92-46.82-12.82-7.69-26.78-11.06-41.78-10.5-12.26.46-23.71,3.65-34.3,9.69-16.89,9.65-28.51,23.7-34.64,42.04-1.56,4.65-2.64,9.35-3.23,14.1h30.69Z" style="fill:#0c3e49;"/>
    <path d="m655.32,376.17c-8.03,12.75-22.29,21.22-38.58,21.22-16.29,0-30.55-8.47-38.58-21.22h-32.56c2.82,7.97,6.74,15.49,11.48,22.64,19.18,28.96,38.47,57.85,57.73,86.76.52.78,1.16,1.49,1.94,2.47.78-.99,1.41-1.71,1.94-2.49,19.26-28.91,38.64-57.74,57.65-86.81,4.37-6.68,7.99-13.96,10.99-21.36.16-.4.31-.81.47-1.21h-32.47Z" style="fill:#0c3e49;"/>
  </g>
</svg>